<svg width="32" height="32" viewBox="0 0 32 32" fill="none" xmlns="http://www.w3.org/2000/svg">
<mask id="mask0_99_18666" style="mask-type:alpha" maskUnits="userSpaceOnUse" x="0" y="0" width="32" height="32">
<path d="M15.8522 0.149261C11.5474 0.149261 11.0071 0.168085 9.31637 0.245027C7.62891 0.322299 6.47708 0.58945 5.46922 0.981426C4.4267 1.38628 3.54235 1.92785 2.6613 2.80922C1.7796 3.69025 1.23802 4.57459 0.831842 5.61678C0.438872 6.62495 0.171388 7.7771 0.0954355 9.46389C0.0198135 11.1546 0 11.6952 0 16C0 20.3048 0.0191535 20.8434 0.0957662 22.5341C0.17337 24.2216 0.440523 25.3734 0.832173 26.3813C1.23736 27.4238 1.77893 28.3081 2.66031 29.1892C3.54103 30.0708 4.42538 30.6137 5.46724 31.0186C6.47576 31.4106 7.62792 31.6777 9.31505 31.755C11.0058 31.8319 11.5457 31.8508 15.8503 31.8508C20.1554 31.8508 20.694 31.8319 22.3848 31.755C24.0723 31.6777 25.2254 31.4106 26.2339 31.0186C27.2761 30.6137 28.1591 30.0708 29.0399 29.1892C29.9216 28.3081 30.4631 27.4238 30.8693 26.3816C31.259 25.3734 31.5265 24.2213 31.6057 22.5345C31.6817 20.8437 31.7015 20.3048 31.7015 16C31.7015 11.6952 31.6817 11.155 31.6057 9.46422C31.5265 7.77677 31.259 6.62495 30.8693 5.61711C30.4631 4.57459 29.9216 3.69025 29.0399 2.80922C28.1582 1.92752 27.2764 1.38595 26.2329 0.981426C25.2224 0.58945 24.0699 0.322299 22.3825 0.245027C20.6917 0.168085 20.1534 0.149261 15.8473 0.149261H15.8522ZM14.4303 3.0057C14.8523 3.00504 15.3232 3.0057 15.8522 3.0057C20.0844 3.0057 20.586 3.02089 22.2573 3.09684C23.8028 3.16751 24.6416 3.42574 25.2003 3.6427C25.94 3.92999 26.4674 4.27343 27.0218 4.8282C27.5766 5.38298 27.9201 5.91134 28.208 6.65104C28.425 7.20912 28.6835 8.04789 28.7539 9.59333C28.8298 11.2643 28.8463 11.7662 28.8463 15.9964C28.8463 20.2265 28.8298 20.7285 28.7539 22.3994C28.6832 23.9449 28.425 24.7836 28.208 25.3417C27.9207 26.0814 27.5766 26.6081 27.0218 27.1626C26.4671 27.7173 25.9403 28.0608 25.2003 28.3481C24.6422 28.566 23.8028 28.8236 22.2573 28.8943C20.5864 28.9702 20.0844 28.9867 15.8522 28.9867C11.6197 28.9867 11.1181 28.9702 9.44714 28.8943C7.90168 28.8229 7.0629 28.5647 6.50383 28.3477C5.76412 28.0604 5.23575 27.717 4.68097 27.1622C4.12619 26.6075 3.78275 26.0804 3.4948 25.3404C3.27784 24.7823 3.01927 23.9435 2.94893 22.3981C2.87298 20.7272 2.85779 20.2252 2.85779 15.9924C2.85779 11.7596 2.87298 11.2603 2.94893 9.58937C3.0196 8.04392 3.27784 7.20515 3.4948 6.64642C3.78209 5.90671 4.12619 5.37836 4.68097 4.82358C5.23575 4.2688 5.76412 3.92537 6.50383 3.63742C7.06257 3.41947 7.90168 3.16189 9.44714 3.0909C10.9094 3.02485 11.4761 3.00504 14.4303 3.00174V3.0057ZM24.3133 5.63758C23.2632 5.63758 22.4112 6.48857 22.4112 7.53901C22.4112 8.58912 23.2632 9.4411 24.3133 9.4411C25.3634 9.4411 26.2154 8.58912 26.2154 7.53901C26.2154 6.4889 25.3634 5.63692 24.3133 5.63692V5.63758ZM15.8522 7.85999C11.3568 7.85999 7.71213 11.5047 7.71213 16C7.71213 20.4953 11.3568 24.1384 15.8522 24.1384C20.3476 24.1384 23.991 20.4953 23.991 16C23.991 11.5047 20.3473 7.85999 15.8519 7.85999H15.8522ZM15.8522 10.7164C18.7701 10.7164 21.1359 13.0818 21.1359 16C21.1359 18.9179 18.7701 21.2836 15.8522 21.2836C12.934 21.2836 10.5686 18.9179 10.5686 16C10.5686 13.0818 12.934 10.7164 15.8522 10.7164Z" fill="white"/>
</mask>
<g mask="url(#mask0_99_18666)">
<path d="M15.8621 -5.46504C6.89845 -5.46504 4.27692 -5.4558 3.76735 -5.41352C1.92785 -5.26062 0.783197 -4.97099 -0.463831 -4.35013C-1.42486 -3.87292 -2.18279 -3.31975 -2.93081 -2.54433C-4.29309 -1.13021 -5.11872 0.609533 -5.4176 2.67754C-5.56291 3.6815 -5.60518 3.88625 -5.61377 9.01434C-5.61707 10.7237 -5.61377 12.9733 -5.61377 15.9908C-5.61377 24.9471 -5.60386 27.566 -5.56093 28.0746C-5.41231 29.8645 -5.1316 30.9907 -4.53715 32.2225C-3.40108 34.5805 -1.23133 36.3506 1.32481 37.0111C2.20988 37.2389 3.18742 37.3644 4.44238 37.4239C4.97408 37.447 10.3935 37.4635 15.8162 37.4635C21.2389 37.4635 26.6617 37.4569 27.1802 37.4305C28.6333 37.3621 29.4771 37.2489 30.41 37.0078C32.9827 36.344 35.1128 34.6003 36.272 32.2093C36.8549 31.0072 37.1504 29.8381 37.2842 28.1416C37.3133 27.7717 37.3255 21.8745 37.3255 15.9852C37.3255 10.0949 37.3123 4.20857 37.2832 3.83869C37.1478 2.1148 36.8522 0.955633 36.2505 -0.269586C35.7568 -1.27255 35.2086 -2.02155 34.4127 -2.78739C32.9923 -4.14405 31.2551 -4.96967 29.1851 -5.26821C28.1821 -5.41319 27.9823 -5.45613 22.8502 -5.46504H15.8621Z" fill="url(#paint0_radial_99_18666)"/>
<path d="M15.8621 -5.46504C6.89845 -5.46504 4.27692 -5.4558 3.76735 -5.41352C1.92785 -5.26062 0.783197 -4.97099 -0.463831 -4.35013C-1.42486 -3.87292 -2.18279 -3.31975 -2.93081 -2.54433C-4.29309 -1.13021 -5.11872 0.609533 -5.4176 2.67754C-5.56291 3.6815 -5.60518 3.88625 -5.61377 9.01434C-5.61707 10.7237 -5.61377 12.9733 -5.61377 15.9908C-5.61377 24.9471 -5.60386 27.566 -5.56093 28.0746C-5.41231 29.8645 -5.1316 30.9907 -4.53715 32.2225C-3.40108 34.5805 -1.23133 36.3506 1.32481 37.0111C2.20988 37.2389 3.18742 37.3644 4.44238 37.4239C4.97408 37.447 10.3935 37.4635 15.8162 37.4635C21.2389 37.4635 26.6617 37.4569 27.1802 37.4305C28.6333 37.3621 29.4771 37.2489 30.41 37.0078C32.9827 36.344 35.1128 34.6003 36.272 32.2093C36.8549 31.0072 37.1504 29.8381 37.2842 28.1416C37.3133 27.7717 37.3255 21.8745 37.3255 15.9852C37.3255 10.0949 37.3123 4.20857 37.2832 3.83869C37.1478 2.1148 36.8522 0.955633 36.2505 -0.269586C35.7568 -1.27255 35.2086 -2.02155 34.4127 -2.78739C32.9923 -4.14405 31.2551 -4.96967 29.1851 -5.26821C28.1821 -5.41319 27.9823 -5.45613 22.8502 -5.46504H15.8621Z" fill="url(#paint1_radial_99_18666)"/>
</g>
<defs>
<radialGradient id="paint0_radial_99_18666" cx="0" cy="0" r="1" gradientUnits="userSpaceOnUse" gradientTransform="translate(5.79095 40.7699) rotate(-90) scale(42.5454 39.5817)">
<stop stop-color="#FFDD55"/>
<stop offset="0.1" stop-color="#FFDD55"/>
<stop offset="0.5" stop-color="#FF543E"/>
<stop offset="1" stop-color="#C837AB"/>
</radialGradient>
<radialGradient id="paint1_radial_99_18666" cx="0" cy="0" r="1" gradientUnits="userSpaceOnUse" gradientTransform="translate(-12.808 -2.37254) rotate(78.6775) scale(19.0182 78.4142)">
<stop stop-color="#3771C8"/>
<stop offset="0.128" stop-color="#3771C8"/>
<stop offset="1" stop-color="#6600FF" stop-opacity="0"/>
</radialGradient>
</defs>
</svg>
